With: Met Romola Garai, Dominic West and Ben Whishaw
De succesformule van dit nieuwe programma bestaat uit drie onderling zeer verschillende journalisten. De mysterieuze producente Bel Rowley is een gedreven vrouw in een mannenwereld. Haar beste vriend Freddie Lyon is een briljant en hartstochtelijk verslaggever. En Hector Madden is een charmante presentator met goede connecties. Nadat Freddie zijn tanden heeft gezet in een belangwekkend maar controversieel verhaal, valt het drietal ten prooi aan een ongekend heftige storm van politiek, ambitie, liefde en zelfs moord...

A behind-the-scenes drama and espionage thriller in Cold War-era England that centers on a journalist, a producer, and an anchorman for an investigative news programme. 

------------------------ Dutch Friends ------------------------
---------------------------------------------------------------
- Bezoek ook eens mijn vrienden op:  http://www.Film-Test.nl --
----- voor mijn Nederlandse Sync. ondertitels ---- en meer ----
------- http://www.Film-Test.nl ---- voor Films en meer -------
---------------------------------------------------------------

General:

Complete name                    : The HourPart01.avi
Format                           : AVI
Format/Info                      : Audio Video Interleave
File size                        : 848 MiB
Duration                         : 59mn 2s
Overall bit rate                 : 2 008 Kbps

Video:

Format                           : MPEG-4 Visual
Format profile                   : Simple@L3
Format settings, BVOP            : No
Format settings, QPel            : No
Format settings, GMC             : No warppoints
Format settings, Matrix          : Default (H.263)
Codec ID                         : XVID
Codec ID/Hint                    : XviD
Duration                         : 59mn 2s
Bit rate                         : 1 549 Kbps
Width                            : 652 pixels
Height                           : 352 pixels
Display aspect ratio             : 1.852
Frame rate                       : 25.000 fps
Color space                      : YUV
Chroma subsampling               : 4:2:0
Bit depth                        : 8 bits
Scan type                        : Progressive
Compression mode                 : Lossy
Bits/(Pixel*Frame)               : 0.270
Stream size                      : 654 MiB (77%)
Writing library                  : XviD 1.1.2 (UTC 2006-11-01)

Audio:

Format                           : AC-3
Format/Info                      : Audio Coding 3
Mode extension                   : CM (complete main)
Codec ID                         : 2000
Duration                         : 59mn 2s
Bit rate mode                    : Constant
Bit rate                         : 448 Kbps
Channel(s)                       : 6 channels
Channel positions                : Front: L C R, Side: L R, LFE
Sampling rate                    : 48.0 KHz
Bit depth                        : 16 bits
Compression mode                 : Lossy
Stream size                      : 189 MiB (22%)
Alignment                        : Aligned on interleaves
Interleave, duration             : 32 ms (0.80 video frame)

